<svg width="15" height="19" viewBox="0 0 15 19" fill="none" xmlns="http://www.w3.org/2000/svg">
<path d="M1.8 19C1.3 19 0.875 18.825 0.525 18.475C0.175 18.125 0 17.7 0 17.2V5.8C0 5.3 0.175 4.875 0.525 4.525C0.875 4.175 1.3 4 1.8 4H3.75V3.75C3.75 2.71667 4.11667 1.83333 4.85 1.1C5.58333 0.366667 6.46667 0 7.5 0C8.53333 0 9.41667 0.366667 10.15 1.1C10.8833 1.83333 11.25 2.71667 11.25 3.75V4H13.2C13.7 4 14.125 4.175 14.475 4.525C14.825 4.875 15 5.3 15 5.8V17.2C15 17.7 14.825 18.125 14.475 18.475C14.125 18.825 13.7 19 13.2 19H1.8ZM1.8 17.5H13.2C13.2667 17.5 13.3333 17.4667 13.4 17.4C13.4667 17.3333 13.5 17.2667 13.5 17.2V5.8C13.5 5.73333 13.4667 5.66667 13.4 5.6C13.3333 5.53333 13.2667 5.5 13.2 5.5H11.25V7.75C11.25 7.96667 11.1793 8.14567 11.038 8.287C10.896 8.429 10.7167 8.5 10.5 8.5C10.2833 8.5 10.1043 8.429 9.963 8.287C9.821 8.14567 9.75 7.96667 9.75 7.75V5.5H5.25V7.75C5.25 7.96667 5.17933 8.14567 5.038 8.287C4.896 8.429 4.71667 8.5 4.5 8.5C4.28333 8.5 4.10433 8.429 3.963 8.287C3.821 8.14567 3.75 7.96667 3.75 7.75V5.5H1.8C1.73333 5.5 1.66667 5.53333 1.6 5.6C1.53333 5.66667 1.5 5.73333 1.5 5.8V17.2C1.5 17.2667 1.53333 17.3333 1.6 17.4C1.66667 17.4667 1.73333 17.5 1.8 17.5ZM5.25 4H9.75V3.75C9.75 3.11667 9.53333 2.58333 9.1 2.15C8.66667 1.71667 8.13333 1.5 7.5 1.5C6.86667 1.5 6.33333 1.71667 5.9 2.15C5.46667 2.58333 5.25 3.11667 5.25 3.75V4ZM1.5 17.5V5.5V17.5Z" fill="#121212"/>
</svg>
